Fungal-Grow 900 Thickness 1000.ufo
<glyph name="M" format="1">
  <advance width="1767"/>
  <unicode hex="004D"/>
  <outline>
    <contour>
      <point x="201" y="1493" type="line"/>
      <point x="502" y="1493" type="line"/>
      <point x="883" y="477" type="line"/>
      <point x="1266" y="1493" type="line"/>
      <point x="1567" y="1493" type="line"/>
      <point x="1567" y="0" type="line"/>
      <point x="1370" y="0" type="line"/>
      <point x="1370" y="1311" type="line"/>
      <point x="985" y="287" type="line"/>
      <point x="782" y="287" type="line"/>
      <point x="397" y="1311" type="line"/>
      <point x="397" y="0" type="line"/>
      <point x="201" y="0" type="line"/>
      <point x="201" y="1493" type="line"/>
    </contour>
    <component base="blob1" xScale="0" xyScale="1.2886" yScale="0" yxScale="1.2886" xOffset="234" yOffset="1552"/>
    <component base="blob2" xScale="0" xyScale="1" yScale="0" yxScale="1" xOffset="-225" yOffset="1894"/>
    <component base="blob3" xScale="0" xyScale="1" yScale="0" yxScale="1" xOffset="-593" yOffset="2172"/>
    <component base="blob4" xScale="0" xyScale="0.8783" yScale="0" yxScale="0.8783" xOffset="-1053" yOffset="2215"/>
    <component base="blob5" xScale="0" xyScale="1.0354" yScale="0" yxScale="1.0354" xOffset="-1500" yOffset="2144"/>
    <component base="blob6" xScale="0" xyScale="1.1539" yScale="0" yxScale="1.1539" xOffset="-1963" yOffset="2423"/>
    <component base="blob7" xScale="0" xyScale="0.9753" yScale="0" yxScale="0.9753" xOffset="-2396" yOffset="2740"/>
    <component base="blob8" xScale="0" xyScale="0.8782" yScale="0" yxScale="0.8782" xOffset="-2403" yOffset="3190"/>
    <component base="blob9" xScale="0" xyScale="0.4869" yScale="0" yxScale="0.4869" xOffset="-2324" yOffset="3521"/>
    <component base="blob2" xScale="0" xyScale="1" yScale="0" yxScale="1" xOffset="509" yOffset="1119"/>
    <component base="blob3" xScale="0" xyScale="0.7509" yScale="0" yxScale="0.7509" xOffset="624" yOffset="760"/>
    <component base="blob1" xScale="0" xyScale="1.2886" yScale="0" yxScale="1.2886" xOffset="1529" yOffset="-146"/>
    <component base="blob2" xScale="0" xyScale="1" yScale="0" yxScale="1" xOffset="1607" yOffset="370"/>
    <component base="blob3" xScale="0" xyScale="1" yScale="0" yxScale="1" xOffset="1484" yOffset="764"/>
    <component base="blob4" xScale="0" xyScale="0.8783" yScale="0" yxScale="0.8783" xOffset="1483" yOffset="1201"/>
    <component base="blob2" xScale="0" xyScale="1.2302" yScale="0" yxScale="1.2302" xOffset="1363" yOffset="-740"/>
    <component base="blob3" xScale="0" xyScale="1" yScale="0" yxScale="1" xOffset="1008" yOffset="-1140"/>
    <component base="blob4" xScale="0" xyScale="0.8783" yScale="0" yxScale="0.8783" xOffset="792" yOffset="-1531"/>
    <component base="blob5" xScale="0" xyScale="1.0354" yScale="0" yxScale="1.0354" xOffset="892" yOffset="-1999"/>
    <component base="blob6" xScale="0" xyScale="1.1539" yScale="0" yxScale="1.1539" xOffset="1204" yOffset="-2474"/>
    <component base="blob7" xScale="0" xyScale="0.9753" yScale="0" yxScale="0.9753" xOffset="1696" yOffset="-2600"/>
    <component base="blob8" xScale="0" xyScale="0.8782" yScale="0" yxScale="0.8782" xOffset="2067" yOffset="-2785"/>
    <component base="blob9" xScale="0" xyScale="0.4869" yScale="0" yxScale="0.4869" xOffset="2343" yOffset="-2974"/>
    <contour>
      <point x="883" y="1520" type="move" name="above"/>
    </contour>
    <contour>
      <point x="883" y="0" type="move" name="below"/>
    </contour>
    <contour>
      <point x="299" y="0" type="move" name="cedilla"/>
    </contour>
    <contour>
      <point x="0" y="1520" type="move" name="half"/>
    </contour>
  </outline>
</glyph>
<glyph name="Aogonek" format="1">
  <advance width="1401"/>
  <unicode hex="0104"/>
  <outline>
    <component base="A"/>
    <component base="ogonek" xOffset="740"/>
    <contour>
      <point x="700" y="1520" type="move" name="above"/>
    </contour>
    <contour>
      <point x="1279" y="-384" type="move" name="below"/>
    </contour>
    <contour>
      <point x="1279" y="-384" type="move" name="cedilla"/>
    </contour>
    <contour>
      <point x="0" y="1520" type="move" name="half"/>
    </contour>
  </outline>
</glyph>
<glyph name="emacron" format="1">
  <advance width="1260"/>
  <unicode hex="0113"/>
  <outline>
    <component base="macron" xOffset="150"/>
    <component base="e"/>
    <contour>
      <point x="662" y="1556" type="move" name="above-legacy"/>
    </contour>
    <contour>
      <point x="662" y="0" type="move" name="below"/>
    </contour>
    <contour>
      <point x="662" y="0" type="move" name="cedilla"/>
    </contour>
  </outline>
</glyph>
<glyph name="Itilde" format="1">
  <advance width="604"/>
  <unicode hex="0128"/>
  <outline>
    <component base="Tilde" xOffset="814" yOffset="373"/>
    <component base="I"/>
    <contour>
      <point x="303" y="0" type="move" name="below"/>
    </contour>
    <contour>
      <point x="303" y="0" type="move" name="cedilla"/>
    </contour>
  </outline>
</glyph>
<glyph name="uni0249" format="1">
  <advance width="569"/>
  <unicode hex="0249"/>
  <outline>
    <contour>
      <point x="193" y="1120" type="line"/>
      <point x="377" y="1120" type="line"/>
      <point x="377" y="616" type="line"/>
      <point x="540" y="616" type="line"/>
      <point x="540" y="452" type="line"/>
      <point x="377" y="452" type="line"/>
      <point x="377" y="-20" type="line" smooth="yes"/>
      <point x="377" y="-234"/>
      <point x="214" y="-426"/>
      <point x="33" y="-426" type="qcurve" smooth="yes"/>
      <point x="-37" y="-426" type="line"/>
      <point x="-37" y="-270" type="line"/>
      <point x="12" y="-270" type="line" smooth="yes"/>
      <point x="117" y="-270"/>
      <point x="193" y="-173"/>
      <point x="193" y="-20" type="qcurve" smooth="yes"/>
      <point x="193" y="452" type="line"/>
      <point x="12" y="452" type="line"/>
      <point x="12" y="616" type="line"/>
      <point x="193" y="616" type="line"/>
    </contour>
    <contour>
      <point x="193" y="1556" type="line"/>
      <point x="377" y="1556" type="line"/>
      <point x="377" y="1323" type="line"/>
      <point x="193" y="1323" type="line"/>
    </contour>
    <contour>
      <point x="287" y="1583" type="move" name="above"/>
    </contour>
    <contour>
      <point x="287" y="-430" type="move" name="below"/>
    </contour>
  </outline>
</glyph>
<glyph name="uni027A" format="1">
  <advance width="848"/>
  <unicode hex="027A"/>
  <outline>
    <contour>
      <point x="471" y="174" type="line"/>
      <point x="356.706" y="-27"/>
      <point x="94" y="-27" type="qcurve" smooth="yes"/>
      <point x="57" y="-27"/>
      <point x="1" y="-17" type="qcurve"/>
      <point x="0" y="172" type="line"/>
      <point x="60.277" y="137"/>
      <point x="148" y="137" type="qcurve" smooth="yes"/>
      <point x="307" y="137"/>
      <point x="471" y="343"/>
      <point x="471" y="530" type="qcurve" smooth="yes"/>
      <point x="471" y="1546" type="line"/>
      <point x="656" y="1546" type="line"/>
      <point x="656" y="0" type="line"/>
      <point x="471" y="0" type="line"/>
    </contour>
    <contour>
      <point x="563" y="1520" type="move" name="above"/>
    </contour>
    <contour>
      <point x="565" y="0" type="move" name="below"/>
    </contour>
  </outline>
</glyph>
<glyph name="uni0304" format="1">
  <advance width="0"/>
  <unicode hex="0304"/>
  <outline>
    <component base="macron" xOffset="-1020"/>
    <contour>
      <point x="-512" y="1147" type="move" name="_above"/>
    </contour>
    <contour>
      <point x="-512" y="1282" type="move" name="_above-mark"/>
    </contour>
    <contour>
      <point x="-512" y="1556" type="move" name="above-mark"/>
    </contour>
  </outline>
</glyph>
<glyph name="uni0318" format="1">
  <advance width="0"/>
  <unicode hex="0318"/>
  <outline>
    <contour>
      <point x="-572" y="-331" type="line"/>
      <point x="-732" y="-331" type="line"/>
      <point x="-732" y="-211" type="line"/>
      <point x="-572" y="-211" type="line"/>
      <point x="-572" y="-50" type="line"/>
      <point x="-452" y="-50" type="line"/>
      <point x="-452" y="-492" type="line"/>
      <point x="-572" y="-492" type="line"/>
    </contour>
    <contour>
      <point x="-512" y="0" type="move" name="_Ligature below"/>
    </contour>
    <contour>
      <point x="-512" y="0" type="move" name="_below"/>
    </contour>
    <contour>
      <point x="-512" y="0" type="move" name="_below-mark"/>
    </contour>
    <contour>
      <point x="-512" y="-491" type="move" name="below-mark"/>
    </contour>
  </outline>
</glyph>
<glyph name="uni0333" format="1">
  <advance width="0"/>
  <unicode hex="0333"/>
  <outline>
    <component base="underscoredbl" xOffset="-1024"/>
    <contour>
      <point x="-512" y="-1" type="move" name="_Ligature below"/>
    </contour>
    <contour>
      <point x="-512" y="-1" type="move" name="_below"/>
    </contour>
    <contour>
      <point x="-512" y="-1" type="move" name="_below-mark"/>
    </contour>
  </outline>
</glyph>
<glyph name="uni034E" format="1">
  <advance width="0"/>
  <unicode hex="034E"/>
  <outline>
    <contour>
      <point x="-462" y="-492" type="line"/>
      <point x="-562" y="-492" type="line"/>
      <point x="-562" y="-261" type="line"/>
      <point x="-717" y="-393" type="line"/>
      <point x="-717" y="-267" type="line"/>
      <point x="-512" y="-92" type="line"/>
      <point x="-307" y="-267" type="line"/>
      <point x="-307" y="-393" type="line"/>
      <point x="-462" y="-261" type="line"/>
    </contour>
    <contour>
      <point x="-512" y="-1" type="move" name="_Ligature below"/>
    </contour>
    <contour>
      <point x="-512" y="-1" type="move" name="_below"/>
    </contour>
    <contour>
      <point x="-512" y="0" type="move" name="_below-mark"/>
    </contour>
    <contour>
      <point x="-512" y="-498" type="move" name="below-mark"/>
    </contour>
  </outline>
</glyph>
<glyph name="uni0418" format="1">
  <advance width="1532"/>
  <unicode hex="0418"/>
  <outline>
    <contour>
      <point x="1331" y="1493" type="line"/>
      <point x="1331" y="0" type="line"/>
      <point x="1135" y="0" type="line"/>
      <point x="1135" y="1249" type="line"/>
      <point x="473" y="0" type="line"/>
      <point x="201" y="0" type="line"/>
      <point x="201" y="1493" type="line"/>
      <point x="397" y="1493" type="line"/>
      <point x="397" y="244" type="line"/>
      <point x="1059" y="1493" type="line"/>
    </contour>
    <contour>
      <point x="757" y="1520" type="move" name="above"/>
    </contour>
  </outline>
</glyph>
<glyph name="uni05DA" format="1">
  <advance width="1100"/>
  <unicode hex="05DA"/>
  <outline>
    <contour>
      <point x="914" y="494" type="qcurve" smooth="yes"/>
      <point x="914" y="-426" type="line"/>
      <point x="728" y="-426" type="line"/>
      <point x="728" y="494" type="line" smooth="yes"/>
      <point x="728" y="608"/>
      <point x="707" y="763"/>
      <point x="657" y="880"/>
      <point x="569" y="946"/>
      <point x="442" y="977"/>
      <point x="349" y="977" type="qcurve" smooth="yes"/>
      <point x="88" y="977" type="line"/>
      <point x="88" y="1120" type="line"/>
      <point x="345" y="1120" type="line" smooth="yes"/>
      <point x="513" y="1120"/>
      <point x="727" y="1059"/>
      <point x="861" y="908"/>
      <point x="914" y="676"/>
    </contour>
    <contour>
      <point x="419" y="0" type="move" name="rtl-below"/>
    </contour>
    <contour>
      <point x="383" y="560" type="move" name="rtl-inside"/>
    </contour>
  </outline>
</glyph>
<glyph name="uni0630" format="1">
  <advance width="912"/>
  <unicode hex="0630"/>
  <outline>
    <component base="uni062F"/>
    <component base="arabic_dot" xOffset="325" yOffset="1050"/>
    <contour>
      <point x="400" y="1250" type="move" name="rtl-above"/>
    </contour>
    <contour>
      <point x="450" y="-150" type="move" name="rtl-below"/>
    </contour>
  </outline>
</glyph>
<glyph name="uni0690" format="1">
  <advance width="912"/>
  <unicode hex="0690"/>
  <outline>
    <component base="uni062F"/>
    <component base="arabic_4dots" xOffset="250" yOffset="1300"/>
    <contour>
      <point x="450" y="1500" type="move" name="rtl-above"/>
    </contour>
    <contour>
      <point x="450" y="-150" type="move" name="rtl-below"/>
    </contour>
  </outline>
</glyph>
<glyph name="uni06BC" format="1">
  <advance width="1504"/>
  <unicode hex="06BC"/>
  <outline>
    <component base="uni06BA"/>
    <component base="arabic_dot" xOffset="575" yOffset="800"/>
    <component base="arabic_ring" xOffset="550" yOffset="-675"/>
    <contour>
      <point x="650" y="1000" type="move" name="rtl-above"/>
    </contour>
    <contour>
      <point x="775" y="-750" type="move" name="rtl-below"/>
    </contour>
  </outline>
</glyph>
<glyph name="uni07ED" format="1">
  <advance width="0"/>
  <unicode hex="07ED"/>
  <outline>
    <contour>
      <point x="420" y="1552" type="line"/>
      <point x="624" y="1552" type="line"/>
      <point x="624" y="1348" type="line"/>
      <point x="420" y="1348" type="line"/>
    </contour>
    <contour>
      <point x="512" y="1147" type="move" name="_rtl-above"/>
    </contour>
  </outline>
</glyph>
<glyph name="uni1E0D" format="1">
  <advance width="1300"/>
  <unicode hex="1E0D"/>
  <outline>
    <component base="dotbelowcomb" xOffset="1126" yOffset="1"/>
    <component base="d"/>
    <contour>
      <point x="1022" y="1520" type="move" name="above"/>
    </contour>
    <contour>
      <point x="614" y="-375" type="move" name="below"/>
    </contour>
    <contour>
      <point x="0" y="1520" type="move" name="half"/>
    </contour>
  </outline>
</glyph>
<glyph name="uni2C75" format="1">
  <advance width="1340"/>
  <unicode hex="2C75"/>
  <outline>
    <contour>
      <point x="1137" y="711" type="line"/>
      <point x="403" y="711" type="line"/>
      <point x="403" y="0" type="line"/>
      <point x="201" y="0" type="line"/>
      <point x="201" y="1493" type="line"/>
      <point x="403" y="1493" type="line"/>
      <point x="403" y="881" type="line"/>
      <point x="1137" y="881" type="line"/>
    </contour>
    <contour>
      <point x="770" y="1520" type="move" name="above"/>
    </contour>
    <contour>
      <point x="770" y="0" type="move" name="below"/>
    </contour>
  </outline>
</glyph>
<glyph name="uniA734" format="1">
  <advance width="2464"/>
  <unicode hex="A734"/>
  <outline>
    <contour>
      <point x="586" y="1493" type="line"/>
      <point x="815" y="1493" type="line"/>
      <point x="998.666" y="1011.08" type="line"/>
      <point x="1044.26" y="1185.28"/>
      <point x="1155.5" y="1309.5" type="qcurve" smooth="yes"/>
      <point x="1344" y="1520"/>
      <point x="1659" y="1520" type="qcurve" smooth="yes"/>
      <point x="1973" y="1520"/>
      <point x="2349" y="1099"/>
      <point x="2349" y="745" type="qcurve" smooth="yes"/>
      <point x="2349" y="392"/>
      <point x="1973" y="-29"/>
      <point x="1659" y="-29" type="qcurve" smooth="yes"/>
      <point x="1344" y="-29"/>
      <point x="1155.5" y="181" type="qcurve" smooth="yes"/>
      <point x="1076.26" y="269.277"/>
      <point x="1030.33" y="383" type="qcurve"/>
      <point x="365" y="383" type="line"/>
      <point x="229" y="0" type="line"/>
      <point x="16" y="0" type="line"/>
    </contour>
    <contour>
      <point x="700" y="1294" type="line"/>
      <point x="426" y="551" type="line"/>
      <point x="975" y="551" type="line"/>
    </contour>
    <contour>
      <point x="1439" y="1356"/>
      <point x="1180" y="1028"/>
      <point x="1180" y="745" type="qcurve" smooth="yes"/>
      <point x="1180" y="463"/>
      <point x="1439" y="135"/>
      <point x="1879" y="135"/>
      <point x="2136" y="463"/>
      <point x="2136" y="745" type="qcurve" smooth="yes"/>
      <point x="2136" y="1028"/>
      <point x="1879" y="1356"/>
    </contour>
    <contour>
      <point x="1073" y="1520" type="move" name="above"/>
    </contour>
    <contour>
      <point x="1073" y="0" type="move" name="below"/>
    </contour>
    <contour>
      <point x="1659" y="0" type="move" name="cedilla"/>
    </contour>
    <contour>
      <point x="0" y="1520" type="move" name="half"/>
    </contour>
  </outline>
</glyph>
<glyph name="uniA7FD" format="1">
  <advance width="1767"/>
  <unicode hex="A7FD"/>
  <outline>
    <contour>
      <point x="201" y="0" type="line"/>
      <point x="201" y="1493" type="line"/>
      <point x="397" y="1493" type="line"/>
      <point x="397" y="182" type="line"/>
      <point x="782" y="1206" type="line"/>
      <point x="985" y="1206" type="line"/>
      <point x="1370" y="182" type="line"/>
      <point x="1370" y="1493" type="line"/>
      <point x="1567" y="1493" type="line"/>
      <point x="1567" y="0" type="line"/>
      <point x="1266" y="0" type="line"/>
      <point x="883" y="1016" type="line"/>
      <point x="502" y="0" type="line"/>
    </contour>
    <contour>
      <point x="883" y="1520" type="move" name="above"/>
    </contour>
    <contour>
      <point x="883" y="0" type="move" name="below"/>
    </contour>
    <contour>
      <point x="0" y="1520" type="move" name="half"/>
    </contour>
  </outline>
</glyph>
<glyph name="uniFB6F" format="1">
  <advance width="2120"/>
  <unicode hex="FB6F"/>
  <outline>
    <component base="uni06A1.fina"/>
    <component base="arabic_4dots" xOffset="1400" yOffset="1200"/>
    <contour>
      <point x="700" y="1100" type="move" name="rtl-above"/>
    </contour>
    <contour>
      <point x="800" y="-200" type="move" name="rtl-below"/>
    </contour>
  </outline>
</glyph>
<glyph name="uniFB77" format="1">
  <advance width="1322"/>
  <unicode hex="FB77"/>
  <outline>
    <component base="arabic_2dots" xOffset="550" yOffset="-25"/>
    <component base="uniFEA2"/>
    <contour>
      <point x="650" y="1000" type="move" name="rtl-above"/>
    </contour>
    <contour>
      <point x="812" y="-600" type="move" name="rtl-below"/>
    </contour>
  </outline>
</glyph>
<glyph name="uniFB82" format="1">
  <advance width="912"/>
  <unicode hex="FB82"/>
  <outline>
    <component base="arabic_2dots" xOffset="299" yOffset="-300"/>
    <component base="uni062F"/>
    <contour>
      <point x="400" y="1000" type="move" name="rtl-above"/>
    </contour>
    <contour>
      <point x="499" y="-350" type="move" name="rtl-below"/>
    </contour>
  </outline>
</glyph>
<glyph name="uniFBD9" format="1">
  <advance width="989"/>
  <unicode hex="FBD9"/>
  <outline>
    <component base="uni065A" xOffset="-12" yOffset="-450"/>
    <component base="uni0648"/>
    <contour>
      <point x="500" y="1250" type="move" name="rtl-above"/>
    </contour>
    <contour>
      <point x="500" y="-500" type="move" name="rtl-below"/>
    </contour>
  </outline>
</glyph>
<glyph name="uniFEA1" format="1">
  <advance width="1322"/>
  <unicode hex="FEA1"/>
  <outline>
    <component base="uni062D"/>
    <contour>
      <point x="650" y="1000" type="move" name="rtl-above"/>
    </contour>
    <contour>
      <point x="812" y="-600" type="move" name="rtl-below"/>
    </contour>
  </outline>
</glyph>
<glyph name="uniFEB1" format="1">
  <advance width="2500"/>
  <unicode hex="FEB1"/>
  <outline>
    <component base="uni0633"/>
    <contour>
      <point x="600" y="800" type="move" name="rtl-above"/>
    </contour>
    <contour>
      <point x="600" y="-600" type="move" name="rtl-below"/>
    </contour>
  </outline>
</glyph>
<glyph name="uniFEF6" format="1">
  <advance width="1222"/>
  <unicode hex="FEF6"/>
  <outline>
    <component base="uniFEFC"/>
    <component base="uni0653" xOffset="-362" yOffset="300"/>
    <contour>
      <point x="150" y="1800" type="move" name="Ligature rtl-above"/>
    </contour>
    <contour>
      <point x="200" y="-150" type="move" name="Ligature rtl-below"/>
    </contour>
  </outline>
</glyph>
<glyph name="I.alt" format="1">
  <advance width="908"/>
  <outline>
    <contour>
      <point x="151" y="1493" type="line"/>
      <point x="757" y="1493" type="line"/>
      <point x="757" y="1323" type="line"/>
      <point x="555" y="1323" type="line"/>
      <point x="555" y="170" type="line"/>
      <point x="758" y="170" type="line"/>
      <point x="758" y="0" type="line"/>
      <point x="152" y="0" type="line"/>
      <point x="152" y="170" type="line"/>
      <point x="353" y="170" type="line"/>
      <point x="353" y="1323" type="line"/>
      <point x="151" y="1323" type="line"/>
    </contour>
    <contour>
      <point x="455" y="1520" type="move" name="above"/>
    </contour>
    <contour>
      <point x="455" y="0" type="move" name="below"/>
    </contour>
  </outline>
</glyph>
<glyph name="uni067D.medi" format="1">
  <advance width="618"/>
  <outline>
    <component base="uni066E.medi"/>
    <component base="arabic_3dots_a" xOffset="99" yOffset="1100"/>
    <contour>
      <point x="299" y="1300" type="move" name="rtl-above"/>
    </contour>
    <contour>
      <point x="299" y="-100" type="move" name="rtl-below"/>
    </contour>
  </outline>
</glyph>
<glyph name="uni07CC.medi" format="1">
  <advance width="868"/>
  <outline>
    <contour>
      <point x="888" y="147" type="line"/>
      <point x="888" y="0" type="line"/>
      <point x="-20" y="0" type="line"/>
      <point x="-20" y="147" type="line"/>
      <point x="342" y="147" type="line"/>
      <point x="342" y="810" type="line"/>
      <point x="61" y="1497" type="line"/>
      <point x="255" y="1497" type="line"/>
      <point x="434" y="1078" type="line"/>
      <point x="613" y="1497" type="line"/>
      <point x="807" y="1497" type="line"/>
      <point x="526" y="810" type="line"/>
      <point x="526" y="147" type="line"/>
    </contour>
    <contour>
      <point x="427" y="1520" type="move" name="rtl-above"/>
    </contour>
    <contour>
      <point x="427" y="0" type="move" name="rtl-below"/>
    </contour>
  </outline>
</glyph>
<glyph name="uni07CE.fina" format="1">
  <advance width="1339"/>
  <outline>
    <contour>
      <point x="1359" y="0" type="line"/>
      <point x="186" y="0" type="line"/>
      <point x="186" y="881" type="line"/>
      <point x="371" y="881" type="line"/>
      <point x="371" y="147" type="line"/>
      <point x="968" y="147" type="line"/>
      <point x="968" y="881" type="line"/>
      <point x="1153" y="881" type="line"/>
      <point x="1153" y="147" type="line"/>
      <point x="1359" y="147" type="line"/>
    </contour>
    <contour>
      <point x="669" y="1520" type="move" name="rtl-above"/>
    </contour>
    <contour>
      <point x="669" y="0" type="move" name="rtl-below"/>
    </contour>
  </outline>
</glyph>
<glyph name="uni07E0.init" format="1">
  <advance width="968"/>
  <outline>
    <contour>
      <point x="576" y="0" type="line"/>
      <point x="-20" y="0" type="line"/>
      <point x="-20" y="147" type="line"/>
      <point x="392" y="147" type="line"/>
      <point x="392" y="1346" type="line"/>
      <point x="61" y="1346" type="line"/>
      <point x="61" y="1493" type="line"/>
      <point x="907" y="1493" type="line"/>
      <point x="907" y="1346" type="line"/>
      <point x="576" y="1346" type="line"/>
    </contour>
    <contour>
      <point x="477" y="1520" type="move" name="rtl-above"/>
    </contour>
    <contour>
      <point x="477" y="0" type="move" name="rtl-below"/>
    </contour>
  </outline>
</glyph>
